HIERARCHY
ROOT pelvis
{
	OFFSET 0.000000 0.000000 0.000000
	CHANNELS 6 Xposition Yposition Zposition Zrotation Xrotation Yrotation
	JOINT lfemur
	{
		OFFSET 11.446000 0.000000 0.000000
		CHANNELS 3 Zrotation Xrotation Yrotation
		JOINT ltibia
		{
			OFFSET 0.000000 -42.030400 0.000000
			CHANNELS 3 Zrotation Xrotation Yrotation
			JOINT lfoot
			{
				OFFSET 0.000000 -39.930200 0.000000
				CHANNELS 3 Zrotation Xrotation Yrotation
				JOINT ltoes
				{
					OFFSET 0.000000 0.000000 11.775800
					CHANNELS 3 Zrotation Xrotation Yrotation
					End Site
					{
					    OFFSET 0.000000 0.000000 5.000000
					}
				}
			}
		}
	}
	JOINT rfemur
	{
		OFFSET -11.446000 0.000000 0.000000
		CHANNELS 3 Zrotation Xrotation Yrotation
		JOINT rtibia
		{
			OFFSET 0.000000 -42.030400 0.000000
			CHANNELS 3 Zrotation Xrotation Yrotation
			JOINT rfoot
			{
				OFFSET 0.000000 -39.930200 0.000000
				CHANNELS 3 Zrotation Xrotation Yrotation
				JOINT rtoes
				{
					OFFSET 0.000000 0.000000 11.775800
					CHANNELS 3 Zrotation Xrotation Yrotation
					End Site
					{
					    OFFSET 0.000000 0.000000 5.000000
					}
				}
			}
		}
	}
	JOINT thorax
	{
		OFFSET 0.000000 11.255600 -5.000000
		CHANNELS 3 Zrotation Xrotation Yrotation
		JOINT head
		{
			OFFSET 0.000000 43.799300 0.000000
			CHANNELS 3 Zrotation Xrotation Yrotation
			End Site
			{
			    OFFSET 0.000000 5.000000 0.000000
			}
		}
		JOINT lclavicle
		{
			OFFSET 0.000000 39.863000 0.000000
			CHANNELS 3 Zrotation Xrotation Yrotation
			JOINT lhumerus
			{
				OFFSET 17.380600 4.958300 0.000000
				CHANNELS 3 Zrotation Xrotation Yrotation
				JOINT lradius
				{
					OFFSET 0.000000 -27.561300 0.000000
					CHANNELS 3 Zrotation Xrotation Yrotation
					JOINT lhand
					{
						OFFSET 0.000000 -26.933000 0.000000
						CHANNELS 3 Zrotation Xrotation Yrotation
						End Site
						{
						    OFFSET 0.000000 -5.000000 0.000000
						}
					}
				}
			}
		}
		JOINT rclavicle
		{
			OFFSET 0.000000 39.863000 0.000000
			CHANNELS 3 Zrotation Xrotation Yrotation
			JOINT rhumerus
			{
				OFFSET -17.380600 4.958300 0.000000
				CHANNELS 3 Zrotation Xrotation Yrotation
				JOINT rradius
				{
					OFFSET 0.000000 -27.561300 0.000000
					CHANNELS 3 Zrotation Xrotation Yrotation
					JOINT rhand
					{
						OFFSET 0.000000 -26.933000 0.000000
						CHANNELS 3 Zrotation Xrotation Yrotation
						End Site
						{
						    OFFSET 0.000000 -5.000000 0.000000
						}
					}
				}
			}
		}
	}
}
MOTION
Frames: 16
Frame Time:	0.0333333
4.12763 85.4454 -40.7272 3.75892 -0.153288 4.71512 -7.20364 11.794 -5.18961 0.111576 24.7952 -0.170449 3.11079 -5.09024 2.5116 -2.48481e-017 -5 -0 -0.704196 -25.6743 4.13893 -0.0931094 24.0735 0.166184 0.362857 14.8839 -5.74261 -0 -5 -0 -2.4734 5.09148 -4.66731 2.13825 -1.48235 -7.7903 1.19581e-016 7.95139e-016 -4.96962e-017 13.3254 -11.9832 -25.3506 19.2349 -27.5092 8.88919 -0.0544227 -0.924121 -6.59296 1.19581e-016 7.95139e-016 -4.96962e-017 -3.48264 2.08722 0.967657 -11.4298 -17.8908 -4.3995 0.403232 -2.51256 18.1915 
3.55693 86.1213 -37.6939 2.96872 -0.767761 5.72262 -5.61817 9.47085 -4.56464 0.195371 32.7472 -0.215015 3.64165 -2.01247 0.234462 -8.20009e-017 -5 1.99544e-016 0.757046 -22.894 4.37806 -0.0938551 23.8921 0.195164 -0.330999 14.3472 -5.85736 2.6835e-016 -5 7.98176e-016 -1.77011 5.57234 -5.155 2.7268 -1.01999 -8.21381 1.05604e-016 0 1.98785e-016 12.7536 -11.2664 -25.0221 18.2167 -26.381 8.25195 -0.0547677 -0.926682 -6.6116 1.05604e-016 0 1.98785e-016 -3.50973 1.56344 1.74073 -12.0101 -18.6839 -4.69882 0.356382 -2.36522 17.0893 
2.9578 86.5303 -34.8034 1.92419 -1.13874 6.79175 -3.26221 5.08735 -3.13977 0.361095 43.0204 -0.358334 4.97561 2.61431 -3.24526 -1.73914e-017 -5 -1.99544e-016 2.46112 -20.219 4.8833 -0.091478 23.5312 0.210221 -0.430059 12.3977 -7.84033 -5.96534e-017 -5 1.59635e-015 -0.738689 5.52695 -5.38441 3.32243 -0.710289 -9.23716 -9.93923e-017 0 -0 12.3317 -10.4582 -26.1965 17.257 -25.2832 7.66415 -0.0732911 -1.07471 -7.67273 -9.93923e-017 0 -0 -3.88059 1.1915 4.21272 -13.0055 -20.0152 -5.22648 0.223843 -1.88033 13.5085 
2.21044 86.9712 -32.0943 -0.553278 -1.88302 8.21487 0.978038 -0.396297 -2.24355 0.659121 53.7317 -0.637201 3.22846 8.77492 -8.16433 -4.06265e-016 -5 -9.9772e-017 5.20394 -16.136 3.49892 -0.0713912 20.1469 0.202743 -0.352187 11.984 -8.80611 -0 -5 -0 2.34738 5.89681 -5.87006 2.99579 -0.978596 -10.2816 1.49089e-016 -7.95139e-016 -3.97569e-016 11.6462 -10.218 -28.0446 16.5934 -24.5045 7.2653 -0.109554 -1.31609 -9.41004 1.49089e-016 -7.95139e-016 -3.97569e-016 -4.89865 0.614891 6.79635 -14.5048 -21.9502 -6.05344 0.135515 -1.46393 10.4787 
1.64027 87.4043 -29.5904 -2.14337 -2.74885 8.77718 3.92426 -5.0909 -0.986103 1.14331 63.1784 -0.977979 4.84448 13.781 -10.6654 -3.77047e-016 -5 -2.04533e-015 7.22126 -11.7089 2.07151 -0.0504456 15.7705 0.209046 -1.56759 12.724 -7.82549 -1.29219e-016 -5 7.98176e-016 4.24802 6.63236 -5.2498 3.18911 -1.45118 -11.3958 -0 -7.95139e-016 -0 11.0543 -10.5229 -29.299 15.5849 -23.2902 6.67165 -0.160623 -1.59357 -11.4189 -0 -7.95139e-016 -0 -6.05419 -1.04725 8.48309 -14.9522 -22.5114 -6.30732 0.116218 -1.35593 9.69713 
1.25505 87.6788 -27.3851 -2.5498 -3.11334 8.22452 5.41369 -9.17119 0.89731 1.78194 69.8028 -1.68319 3.73592 8.8361 -9.55338 8.6957e-018 -5 9.9772e-017 8.17982 -8.74284 2.29721 -0.0393993 13.1749 0.199203 -1.75095 12.5191 -7.7902 -1.98785e-016 -5 -0 4.45289 7.14094 -3.75209 3.52333 -1.58157 -12.1855 1.49089e-016 7.95139e-016 -7.95139e-016 10.4388 -10.3739 -27.4479 14.7645 -22.2748 6.20015 -0.265445 -2.04506 -14.7203 1.49089e-016 7.95139e-016 -7.95139e-016 -7.02201 -2.73908 10.3902 -15.4948 -23.1819 -6.61952 0.0746003 -1.0839 7.73916 
0.994271 88.0693 -25.4204 -2.5339 -3.23909 7.21609 6.10334 -12.992 2.39767 2.47038 74.0401 -2.3448 3.58013 8.60112 -8.93813 -7.95139e-016 -5 -0 8.59881 -6.10495 2.93921 -0.0284061 10.3663 0.185859 -1.68766 13.0372 -7.71798 6.46095e-017 -5 -3.99088e-016 4.09119 7.37041 -1.96287 3.90345 -1.30815 -12.5311 -4.96962e-017 -1.59028e-015 -2.38542e-015 10.0542 -9.84767 -25.7989 14.3813 -21.7919 5.98348 -0.230925 -1.9092 -13.7207 -4.96962e-017 -1.59028e-015 -2.38542e-015 -7.94315 -4.94579 10.5983 -15.9232 -23.7037 -6.86923 0.138789 -1.48169 10.6074 
0.81035 88.2096 -23.757 -2.89748 -3.25765 6.56676 6.9803 -16.3928 3.57904 3.11039 76.614 -3.04687 2.76317 3.56339 -8.53589 4.32352e-016 -5 3.99088e-016 9.26635 -4.35979 3.14349 -0.0255664 8.96893 0.187506 -1.94932 12.906 -7.38261 -4.67135e-016 -5 -7.98176e-016 4.62761 7.75109 -0.972939 3.77031 -1.46179 -12.4627 -1.10348e-032 7.95139e-016 7.95139e-016 9.40448 -8.57978 -24.8096 14.8783 -22.4177 6.26491 -0.176155 -1.66898 -11.9675 -1.10348e-032 7.95139e-016 7.95139e-016 -8.94169 -6.97481 12.3564 -16.6846 -24.6144 -7.3198 0.0551035 -0.929226 6.6297 
0.740319 88.2137 -22.2032 -3.14915 -3.13067 5.04554 7.39628 -19.093 4.81256 3.26354 77.1041 -3.23283 2.05464 0.414689 -6.71171 -8.29921e-016 -5 -3.99088e-016 9.70466 -3.36266 3.69923 -0.0260137 8.63279 0.187191 -2.30416 12.2618 -6.75959 1.98785e-016 -5 -0 5.07346 7.75664 0.477907 3.30736 -1.35228 -12.07 9.93923e-017 0 7.95139e-016 8.67381 -7.41986 -23.7499 14.7686 -22.2807 6.20249 -0.0908103 -1.19701 -8.55216 9.93923e-017 0 7.95139e-016 -10.0503 -9.07273 12.6817 -16.3907 -24.2652 -7.14488 0.0110708 -0.397312 2.83085 
0.817907 88.1616 -20.7514 -3.24098 -2.92595 4.33305 6.91042 -21.1114 4.51986 2.72806 75.1631 -2.73429 1.48033 -2.70133 -4.14718 -3.47828e-017 -5 -3.99088e-016 9.80247 -4.10009 3.32105 -0.028881 11.6763 0.145119 -1.71536 9.76119 -6.2319 -5.96354e-016 -5 -0 5.53262 7.75374 1.28202 2.50102 -1.74873 -11.9967 -2.20695e-032 1.59028e-015 7.95139e-016 8.07273 -6.69906 -22.6881 14.6398 -22.119 6.12942 -0.12256 -1.3921 -9.95925 -2.20695e-032 1.59028e-015 7.95139e-016 -11.2386 -10.7812 12.4165 -17.8843 -26.0061 -8.04707 0.0439206 -0.827724 5.90302 
0.853276 87.8918 -19.3556 -3.23939 -2.73404 2.95167 6.33284 -21.7462 4.61518 1.89692 70.6161 -1.96121 1.19033 -6.69032 -1.64385 3.97569e-016 -5 -0 9.9184 -5.11011 3.82746 -0.0432752 15.4551 0.151684 -1.64367 6.93495 -5.85771 -1.98785e-016 -5 -0 5.7015 7.58821 2.30637 2.00987 -1.64402 -11.5815 4.96962e-016 -7.95139e-016 -7.95139e-016 7.38455 -5.81594 -20.6972 13.8269 -21.0844 5.67456 -0.150262 -1.54251 -11.0466 4.96962e-016 -7.95139e-016 -7.95139e-016 -12.1807 -12.1199 14.0472 -19.347 -27.6326 -8.96028 0.0273518 -0.648492 4.62189 
0.994288 87.5236 -18.0642 -2.8805 -2.44933 2.0727 4.83051 -21.265 3.61382 1.20562 63.915 -1.30149 1.33605 -8.69426 1.6621 -2.58438e-016 -5 1.59635e-015 9.68347 -5.90251 4.08939 -0.0606132 18.6821 0.152162 -2.35496 4.31896 -6.15557 -3.15568e-016 -5 -1.99544e-016 5.31261 7.3509 3.02155 1.53508 -2.02109 -11.3778 8.94531e-016 0 7.95139e-016 7.18788 -4.93455 -19.887 13.3109 -20.415 5.39148 -0.15513 -1.56676 -11.224 8.94531e-016 0 7.95139e-016 -12.6641 -13.3463 15.3578 -20.8464 -29.2217 -9.92496 0.0150419 -0.471779 3.3621 
1.13782 87.0957 -16.8016 -2.74848 -1.93962 0.93193 3.59177 -20.0428 2.52769 0.7355 55.7029 -0.872039 1.82727 -10.8598 5.056 3.97569e-016 -5 -0 9.60499 -7.23164 4.49181 -0.0828544 22.2881 0.173188 -2.3118 1.62555 -5.82961 -8.11291e-016 -5 9.9772e-017 5.40109 6.56654 3.45969 1.38388 -1.83802 -11.0663 2.48481e-016 7.95139e-016 -1.59028e-015 6.73589 -3.98882 -17.6423 12.278 -19.0446 4.83878 -0.215326 -1.84487 -13.2483 2.48481e-016 7.95139e-016 -1.59028e-015 -13.1387 -13.9472 17.1615 -22.6422 -31.0236 -11.1153 0.00967636 -0.371897 2.64974 
1.4101 86.5638 -15.4904 -2.27541 -1.77178 0.180979 1.8825 -17.3485 0.420282 0.432507 46.5617 -0.619847 1.95388 -10.7793 5.46364 -1.39131e-016 -5 -1.59635e-015 9.09864 -8.30095 4.47988 -0.112278 25.9781 0.182762 -2.64719 -1.13327 -5.75765 3.89493e-016 -5 4.9886e-017 4.98491 5.61877 3.24926 1.45482 -1.16671 -10.8193 7.95139e-016 0 3.97569e-016 6.68333 -2.75849 -16.6728 11.6721 -18.2224 4.52349 -0.253922 -2.00169 -14.3987 7.95139e-016 0 3.97569e-016 -13.1384 -14.508 18.7409 -23.4881 -31.8351 -11.6882 0.00302074 -0.177217 1.26378 
1.58044 86.0679 -14.2612 -2.26033 -1.58126 -0.396345 0.556028 -14.7857 -2.62665 0.272476 38.9684 -0.48114 1.9183 -9.35474 5.72525 3.47873e-016 -5 -0 9.02921 -8.74966 4.62167 -0.136562 28.4982 0.212308 -2.66621 -3.42929 -5.72329 6.42012e-016 -5 2.4943e-017 5.07286 4.73573 2.75485 1.68435 -0.867815 -10.6752 -2.73329e-016 7.95139e-016 -0 6.586 -1.50044 -16.6746 11.3983 -17.8457 4.38315 -0.258893 -2.02126 -14.5415 -2.73329e-016 7.95139e-016 -0 -12.9248 -14.4651 20.3865 -24.886 -33.1261 -12.6513 -0.000740378 -0.0312027 0.22372 
1.79442 85.9094 -13.4449 -2.10612 -0.932792 -0.24634 -0.49404 -13.2952 -3.56722 0.227796 36.1752 -0.404018 2.14047 -7.63526 9.38087 3.28004e-016 -5 -7.98176e-016 8.74796 -9.14372 4.53494 -0.142755 29.092 0.215437 -2.75571 -4.37175 -5.90152 2.94449e-016 -5 9.9772e-017 4.88791 3.52669 1.96144 2.19142 -0.89142 -11.4303 -6.21202e-016 7.95139e-016 -3.97569e-016 6.63513 -1.03083 -16.5445 11.0092 -17.3066 4.18621 -0.294311 -2.15338 -15.516 -6.21202e-016 7.95139e-016 -3.97569e-016 -12.746 -14.8572 21.2774 -25.2933 -33.4905 -12.9356 -0.000380619 0.0611864 -0.434293 
